<svg width="230" height="87" viewBox="0 0 230 87" fill="none" xmlns="http://www.w3.org/2000/svg">
<g clip-path="url(#clip0_983_86)">
<path d="M-1550 -732C-1561.04 -732 -1570 -723.046 -1570 -712V67C-1570 78.0456 -1561.05 86.9998 -1550 87H-1570V-732H-1550ZM230 87H-0.553711C7.63119 86.9999 14.9898 82.0125 18.0225 74.4102L35.1035 31.5898C38.1361 23.9875 45.4948 19.0001 53.6797 19H210.001C221.022 18.9997 229.961 10.085 230 -0.926758V87ZM230.001 -712V-1C230.001 -0.975575 230 -0.951162 230 -0.926758V-712.074C230 -712.049 230.001 -712.025 230.001 -712ZM230 -712.074C229.96 -723.086 221.022 -732 210.001 -732H230V-712.074Z" fill="#F0F2F4"/>
</g>
<defs>
<clipPath id="clip0_983_86">
<rect width="230" height="87" fill="white"/>
</clipPath>
</defs>
</svg>
