<svg width="40" height="40" viewBox="0 0 40 40" fill="none" xmlns="http://www.w3.org/2000/svg">
<path d="M14.9433 6.42847L16.1719 3.25704C16.3791 2.72008 16.7436 2.25821 17.2178 1.93193C17.6919 1.60565 18.2535 1.43017 18.829 1.42847H21.1719C21.7474 1.43017 22.3091 1.60565 22.7832 1.93193C23.2573 2.25821 23.6218 2.72008 23.829 3.25704L25.0576 6.42847L29.229 8.82847L32.6005 8.31418C33.1618 8.23798 33.7332 8.33039 34.2419 8.57968C34.7507 8.82896 35.1738 9.22385 35.4576 9.71418L36.6005 11.7142C36.8933 12.2123 37.0282 12.7876 36.9874 13.364C36.9466 13.9404 36.732 14.4908 36.3719 14.9428L34.2862 17.5999V22.3999L36.429 25.057C36.7892 25.509 37.0038 26.0594 37.0446 26.6358C37.0854 27.2122 36.9505 27.7875 36.6576 28.2856L35.5148 30.2856C35.231 30.7759 34.8078 31.1708 34.2991 31.4201C33.7904 31.6694 33.219 31.7618 32.6576 31.6856L29.2862 31.1713L25.1148 33.5713L23.8862 36.7428C23.679 37.2797 23.3145 37.7416 22.8403 38.0679C22.3662 38.3941 21.8046 38.5696 21.229 38.5713H18.829C18.2535 38.5696 17.6919 38.3941 17.2178 38.0679C16.7436 37.7416 16.3791 37.2797 16.1719 36.7428L14.9433 33.5713L10.7719 31.1713L7.40047 31.6856C6.83909 31.7618 6.26773 31.6694 5.75899 31.4201C5.25025 31.1708 4.82711 30.7759 4.54333 30.2856L3.40047 28.2856C3.10762 27.7875 2.97269 27.2122 3.0135 26.6358C3.0543 26.0594 3.26893 25.509 3.62904 25.057L5.71475 22.3999V17.5999L3.5719 14.9428C3.21178 14.4908 2.99716 13.9404 2.95635 13.364C2.91555 12.7876 3.05047 12.2123 3.34333 11.7142L4.48618 9.71418C4.76996 9.22385 5.19311 8.82896 5.70185 8.57968C6.21058 8.33039 6.78195 8.23798 7.34333 8.31418L10.7148 8.82847L14.9433 6.42847ZM14.2862 19.9999C14.2862 21.1301 14.6213 22.2349 15.2492 23.1746C15.8771 24.1143 16.7696 24.8467 17.8137 25.2792C18.8579 25.7117 20.0068 25.8249 21.1153 25.6044C22.2237 25.3839 23.2419 24.8397 24.0411 24.0405C24.8402 23.2413 25.3845 22.2232 25.605 21.1147C25.8254 20.0062 25.7123 18.8573 25.2798 17.8131C24.8473 16.769 24.1149 15.8765 23.1752 15.2486C22.2354 14.6207 21.1306 14.2856 20.0005 14.2856C18.4849 14.2856 17.0315 14.8876 15.9599 15.9593C14.8882 17.0309 14.2862 18.4844 14.2862 19.9999V19.9999Z" stroke="#E24C4A" stroke-width="1.5" stroke-linecap="round" stroke-linejoin="round"/>
</svg>
