<svg width="30" height="30" viewBox="0 0 30 30" fill="none" xmlns="http://www.w3.org/2000/svg">
<g clip-path="url(#clip0_788_19295)">
<path d="M15 28.9284C22.6925 28.9284 28.9286 22.6924 28.9286 14.9999C28.9286 7.30732 22.6925 1.07129 15 1.07129C7.30744 1.07129 1.07141 7.30732 1.07141 14.9999C1.07141 22.6924 7.30744 28.9284 15 28.9284Z" stroke="white" stroke-width="1.5" stroke-linecap="round" stroke-linejoin="round"/>
<path d="M15 20.3569C17.9586 20.3569 20.3571 17.9584 20.3571 14.9997C20.3571 12.0411 17.9586 9.64258 15 9.64258C12.0413 9.64258 9.64282 12.0411 9.64282 14.9997C9.64282 17.9584 12.0413 20.3569 15 20.3569Z" stroke="white" stroke-width="1.5" stroke-linecap="round" stroke-linejoin="round"/>
<path d="M9.64282 14.9997V2.14258" stroke="white" stroke-width="1.5" stroke-linecap="round" stroke-linejoin="round"/>
<path d="M15 9.64258H27.8571" stroke="white" stroke-width="1.5" stroke-linecap="round" stroke-linejoin="round"/>
<path d="M20.3572 15V27.8571" stroke="white" stroke-width="1.5" stroke-linecap="round" stroke-linejoin="round"/>
<path d="M15 20.3569H2.14282" stroke="white" stroke-width="1.5" stroke-linecap="round" stroke-linejoin="round"/>
</g>
<defs>
<clipPath id="clip0_788_19295">
<rect width="30" height="30" fill="white"/>
</clipPath>
</defs>
</svg>
