<svg width="30" height="30" viewBox="0 0 30 30" fill="none" xmlns="http://www.w3.org/2000/svg">
<path d="M26.7798 6.42876C26.6732 6.27383 26.5275 6.15485 26.3598 6.0859L14.3598 1.22162C14.2462 1.16852 14.1236 1.14111 13.9998 1.14111C13.8759 1.14111 13.7533 1.16852 13.6398 1.22162L1.63976 6.17162C1.48122 6.21661 1.33642 6.30526 1.21976 6.42876C1.08005 6.60984 1.00241 6.8367 0.999756 7.07162V22.7573C1.00235 22.9713 1.0647 23.1796 1.17877 23.3553C1.29283 23.531 1.4534 23.666 1.63976 23.743L13.6398 28.693H13.9998H14.3598L26.3598 23.743C26.5461 23.666 26.7067 23.531 26.8207 23.3553C26.9348 23.1796 26.9972 22.9713 26.9998 22.7573V7.15733C27.0167 6.89319 26.9379 6.63223 26.7798 6.42876V6.42876Z" stroke="white" stroke-width="1.5" stroke-linecap="round" stroke-linejoin="round"/>
<path d="M14.0002 28.8428V11.7856" stroke="white" stroke-width="1.5" stroke-linecap="round" stroke-linejoin="round"/>
<path d="M14.0002 11.7856V28.8428" stroke="white" stroke-width="1.5" stroke-linecap="round" stroke-linejoin="round"/>
<path d="M1.22021 6.51416L14.0002 11.7856L26.7802 6.51416" stroke="white" stroke-width="1.5" stroke-linecap="round" stroke-linejoin="round"/>
</svg>
