<svg width="20" height="21" viewBox="0 0 20 21" fill="none" xmlns="http://www.w3.org/2000/svg">
<g clip-path="url(#clip0_62_2355)">
<path fill-rule="evenodd" clip-rule="evenodd" d="M9.76616 1.17609C9.79733 1.07132 9.89388 0.999023 10.0034 0.999023C10.1129 0.999023 10.2095 1.07132 10.2406 1.17609C10.2406 1.17609 10.6749 2.63156 11.1403 4.19267C11.8818 6.6798 13.8274 8.62534 16.3145 9.36692C17.8756 9.83232 19.3311 10.2665 19.3311 10.2665C19.4359 10.2977 19.5081 10.3942 19.5081 10.5038C19.5081 10.6133 19.4359 10.7098 19.3311 10.741C19.3311 10.741 17.8756 11.1752 16.3145 11.6406C13.8274 12.3822 11.8818 14.3278 11.1403 16.8149C10.6749 18.376 10.2406 19.8315 10.2406 19.8315C10.2095 19.9362 10.1129 20.0085 10.0034 20.0085C9.89388 20.0085 9.79733 19.9362 9.76616 19.8315C9.76616 19.8315 9.33195 18.376 8.86655 16.8149C8.12497 14.3278 6.17942 12.3822 3.6923 11.6406C2.1312 11.1752 0.67572 10.741 0.67572 10.741C0.570952 10.7098 0.498657 10.6133 0.498657 10.5038C0.498657 10.3942 0.570952 10.2977 0.67572 10.2665C0.67572 10.2665 2.1312 9.83232 3.6923 9.36692C6.17942 8.62534 8.12497 6.6798 8.86655 4.19267C9.33195 2.63156 9.76616 1.17609 9.76616 1.17609Z" fill="white"/>
</g>
<defs>
<clipPath id="clip0_62_2355">
<rect width="20" height="20" fill="white" transform="translate(0 0.5)"/>
</clipPath>
</defs>
</svg>
