<svg width="30" height="30" viewBox="0 0 30 30" fill="none" xmlns="http://www.w3.org/2000/svg">
<g clip-path="url(#clip0_788_849)">
<path d="M15.0001 11.7856C22.6926 11.7856 28.9287 9.3871 28.9287 6.42843C28.9287 3.46976 22.6926 1.07129 15.0001 1.07129C7.30757 1.07129 1.07153 3.46976 1.07153 6.42843C1.07153 9.3871 7.30757 11.7856 15.0001 11.7856Z" stroke="white" stroke-width="1.5" stroke-linecap="round" stroke-linejoin="round"/>
<path d="M1.07153 6.42822V23.5711C1.07153 26.5282 7.30725 28.9282 15.0001 28.9282C22.693 28.9282 28.9287 26.5282 28.9287 23.5711V6.42822" stroke="white" stroke-width="1.5" stroke-linecap="round" stroke-linejoin="round"/>
<path d="M28.9287 15C28.9287 17.9571 22.693 20.3571 15.0001 20.3571C7.30725 20.3571 1.07153 17.9571 1.07153 15" stroke="white" stroke-width="1.5" stroke-linecap="round" stroke-linejoin="round"/>
</g>
<defs>
<clipPath id="clip0_788_849">
<rect width="30" height="30" fill="white"/>
</clipPath>
</defs>
</svg>
