<svg preserveAspectRatio="xMidYMid meet" data-bbox="0 0 650.94 144.263"
    viewBox="0 0 650.94 144.263" xmlns="http://www.w3.org/2000/svg" data-type="color"
    role="presentation" aria-hidden="true">
    <g>
        <path
            d="M366.65.38h-53.09c-1.73 0-2.6 2.09-1.37 3.32l26.55 26.55c.76.76 1.99.76 2.75 0L368.04 3.7c1.22-1.22.36-3.32-1.37-3.32Z"
            fill="#7f2022" data-color="1"></path>
        <path
            d="M636.06.86H516.24c-3.9 0-5.86 4.72-3.1 7.48l59.91 59.91a4.388 4.388 0 0 0 6.2 0l59.91-59.91c2.76-2.76.81-7.48-3.1-7.48Z"
            fill="#7f2022" data-color="1"></path>
        <path
            d="m643.46 16.95-59.91 59.91a4.388 4.388 0 0 0 0 6.2l59.91 59.91c2.76 2.76 7.48.81 7.48-3.1V20.05c0-3.9-4.72-5.86-7.48-3.1Z"
            fill="#822023" data-color="2"></path>
        <path
            d="M508.84 16.95c-2.76-2.76-7.48-.81-7.48 3.1v119.82c0 3.9 4.72 5.86 7.48 3.1l59.91-59.91a4.388 4.388 0 0 0 0-6.2l-59.91-59.91Z"
            fill="#7f2022" data-color="1"></path>
        <path
            d="M25.92 0v92.19c0 3.51.47 6.85 1.43 9.99.95 3.15 2.6 5.86 4.94 8.13 2.34 2.27 5.45 4.06 9.33 5.38 3.88 1.32 8.75 1.98 14.61 1.98h57.55v25.92H54.69c-9.81 0-18.2-1.28-25.15-3.84-6.96-2.56-12.63-6.11-17.02-10.65-4.39-4.54-7.58-9.92-9.55-16.14C.99 106.74 0 99.89 0 92.42V0h25.92Z"
            fill="#54327f" data-color="3"></path>
        <path
            d="M203.61 27.62c13.76 0 23.72 3.11 29.87 9.34 6.15 6.23 9.23 14.97 9.23 26.25 0 10.69-3 18.93-9.01 24.71-6.01 5.79-16.11 8.68-30.31 8.68h-55.13v8.35c0 4.69 1.35 8.53 4.06 11.53 2.71 3 7.28 4.5 13.73 4.5H237v22.62h-70.95c-7.32 0-13.51-.95-18.56-2.86-5.05-1.9-9.23-4.57-12.52-8.02-3.29-3.44-5.68-7.47-7.14-12.08-1.47-4.61-2.2-9.7-2.2-15.27V65.83c0-5.42.73-10.47 2.2-15.16 1.46-4.68 3.84-8.75 7.14-12.19 3.3-3.44 7.47-6.11 12.52-8.02 5.05-1.9 11.24-2.86 18.56-2.86h37.56Zm-55.35 50.74h54.47c6.29 0 10.73-1.24 13.29-3.73 2.56-2.49 3.84-5.85 3.84-10.1s-1.32-7.91-3.95-10.54c-2.64-2.64-6.81-3.95-12.52-3.95h-37.34c-6.45 0-11.02 1.54-13.73 4.61-2.71 3.07-4.06 6.88-4.06 11.42v12.3Z"
            fill="#54327f" data-color="3"></path>
        <path
            d="M266.65 27.62V.16h23.5v27.46h32.07v22.4h-32.07v54.91c0 6.59 1.21 11.13 3.62 13.62 2.42 2.49 6.4 3.73 11.97 3.73h16.03v21.31H300.9c-6.01 0-11.17-.66-15.48-1.98-4.32-1.32-7.87-3.51-10.65-6.59-2.78-3.07-4.83-7.17-6.15-12.3-1.32-5.12-1.98-11.49-1.98-19.11V50.02h-15.82v-22.4h15.82Z"
            fill="#54327f" data-color="3"></path>
        <path
            d="M444.75 27.62v22.4h-64.14c-5.42 0-9.3 1.1-11.64 3.29-2.34 2.2-3.51 5.49-3.51 9.88 0 4.1 1.13 7.21 3.4 9.34 2.27 2.12 6.62 3.18 13.07 3.18h27.24c8.05 0 14.68.88 19.88 2.64 5.2 1.76 9.3 4.1 12.3 7.03 3 2.93 5.09 6.37 6.26 10.32s1.76 8.2 1.76 12.74c0 5.13-.7 9.85-2.09 14.17s-3.62 8.02-6.7 11.09c-3.07 3.07-7.03 5.49-11.86 7.25-4.83 1.76-10.62 2.64-17.35 2.64h-67.43v-22.62h67.43c5.42 0 9.3-.99 11.64-2.97 2.34-1.98 3.51-5.23 3.51-9.77s-1.28-8.02-3.84-9.99c-2.56-1.98-6.78-2.96-12.63-2.96h-27.46c-8.05 0-14.64-.91-19.77-2.75-5.13-1.83-9.19-4.32-12.19-7.47-3-3.15-5.09-6.77-6.26-10.87s-1.76-8.35-1.76-12.74c0-10.4 2.93-18.63 8.79-24.71 5.86-6.07 15.52-9.12 28.99-9.12h64.36Z"
            fill="#54327f" data-color="3"></path>
    </g>
</svg>