<svg version="1.2" xmlns="http://www.w3.org/2000/svg" viewBox="0 0 651 145" width="651" height="145"><style>.a{fill:#7f2022}.b{fill:#822023}.c{fill:#54327f}</style><filter id="f0"><feFlood flood-color="#ffffff" flood-opacity="1" /><feBlend mode="normal" in2="SourceGraphic"/><feComposite in2="SourceAlpha" operator="in" /></filter><g filter="url(#f0)"><path class="a" d="m366.6 0.4h-53c-1.8 0-2.6 2.1-1.4 3.3l26.5 26.6c0.8 0.7 2 0.7 2.8-0.1l26.5-26.5c1.3-1.2 0.4-3.3-1.3-3.3z"/><path class="a" d="m636.1 0.9h-119.9c-3.9 0-5.8 4.7-3.1 7.4l59.9 59.9q0.7 0.7 1.5 1 0.8 0.3 1.6 0.3 0.9 0 1.7-0.3 0.8-0.3 1.4-1l60-59.9c2.7-2.7 0.8-7.4-3.1-7.4z"/><path class="b" d="m643.5 16.9l-59.9 60q-0.7 0.6-1 1.4-0.3 0.8-0.3 1.7 0 0.8 0.3 1.6 0.3 0.8 1 1.5l59.9 59.9c2.7 2.7 7.4 0.8 7.4-3.1v-119.9c0-3.8-4.7-5.8-7.4-3z"/><path class="a" d="m508.8 16.9c-2.7-2.7-7.4-0.8-7.4 3.2v119.8c0 3.9 4.7 5.8 7.4 3.1l59.9-59.9q0.7-0.7 1-1.5 0.3-0.8 0.3-1.6 0-0.9-0.3-1.7-0.3-0.8-1-1.4z"/><path class="c" d="m25.9 0v92.2q0 5.3 1.5 10 1.4 4.7 4.9 8.1 3.5 3.4 9.3 5.4 5.8 2 14.6 2h57.6v25.9h-59.1q-14.7 0-25.2-3.9-10.4-3.8-17-10.6-6.6-6.8-9.5-16.1-3-9.4-3-20.6v-92.4z"/><path class="c" d="m203.6 27.6q20.7 0 29.9 9.4 9.2 9.3 9.2 26.2 0 16-9 24.7-9 8.7-30.3 8.7h-55.1v8.3q0 7.1 4 11.6 4.1 4.5 13.8 4.5h70.9v22.6h-70.9q-11 0-18.6-2.9-7.6-2.8-12.5-8-5-5.1-7.2-12.1-2.2-6.9-2.2-15.2v-39.6q0-8.1 2.2-15.1 2.2-7.1 7.2-12.2 4.9-5.2 12.5-8 7.6-2.9 18.6-2.9h37.5zm-55.3 50.7h54.4q9.5 0 13.3-3.7 3.9-3.7 3.9-10.1c0-4.2-1.4-7.9-4-10.5q-3.9-4-12.5-4h-37.3q-9.7 0-13.8 4.6-4 4.6-4 11.4c0 0 0 12.3 0 12.3z"/><path class="c" d="m266.6 27.6v-27.4h23.5v27.4h32.1v22.4h-32.1v54.9q0.1 9.9 3.7 13.6 3.6 3.8 11.9 3.8h16.1v21.3h-20.9q-9 0-15.5-2-6.5-2-10.6-6.6-4.2-4.6-6.2-12.3-2-7.7-2-19.1v-53.6h-15.8v-22.4c0 0 15.8 0 15.8 0z"/><path class="c" d="m444.8 27.6l-0.1 22.4h-64.1q-8.1 0-11.6 3.3-3.5 3.3-3.5 9.9 0 6.1 3.4 9.3 3.4 3.2 13 3.2h27.3q12 0 19.8 2.7 7.9 2.6 12.4 7 4.5 4.4 6.2 10.3 1.8 5.9 1.8 12.7 0 7.7-2.1 14.2-2.1 6.5-6.7 11.1-4.6 4.6-11.9 7.3-7.2 2.6-17.3 2.6h-67.5v-22.6h67.5q8.1 0 11.6-3 3.5-3 3.5-9.8c0-4.5-1.3-8-3.8-10q-3.9-2.9-12.7-2.9h-27.4q-12.1 0-19.8-2.8-7.7-2.7-12.2-7.4-4.5-4.8-6.2-10.9-1.8-6.2-1.8-12.7 0-15.6 8.8-24.8 8.8-9.1 29-9.1z"/></g></svg>