<svg version="1.2" xmlns="http://www.w3.org/2000/svg" viewBox="0 0 201 201" width="201" height="201"><style></style><path  d="m102.7 17.3l1.4-16.7 10.8 0.9-0.2 2.6-8-0.6-0.3 4.1 6.6 0.5-0.3 2.7-6.6-0.6-0.4 4.7 8 0.7-0.2 2.6z"/><path  d="m115 18.5l6-5.1-2.9-7.1 3.2 0.8 1.8 4.5 3.7-3.2 3.2 0.8-5.9 5 3 7.2-3.2-0.8-1.8-4.7-3.9 3.3z"/><path  d="m134.1 24.8q-1.7-0.7-2.5-2-0.8-1.3-0.8-3 0.1-1.6 0.8-3.3 0.7-1.8 1.9-2.9 1.2-1.1 2.6-1.4 1.5-0.4 3.1 0.4 1.7 0.7 2.5 2 0.9 1.3 1 2.9 0.1 1.7-0.7 3.5-0.7 1.7-2 2.8-1.2 1.1-2.8 1.4-1.5 0.3-3.1-0.4zm-7.6 2.4l7.1-16.7 2.3 1-3.5 8.1 0.4 0.1-3.7 8.6zm8.2-4.9q1 0.5 1.9 0.2 0.8-0.2 1.5-0.9 0.7-0.7 1.2-1.8 0.4-1.1 0.5-2 0-1-0.4-1.8-0.5-0.8-1.5-1.3-1-0.4-1.8-0.2-0.9 0.2-1.5 0.9-0.7 0.8-1.2 1.9-0.4 1.1-0.5 2.1-0.1 1 0.3 1.7 0.5 0.8 1.5 1.2z"/><path  d="m141.7 28.2l8.6-14.8 2.4 1.4-8.6 14.8z"/><path  d="m150.8 34.6q-1.5-1.1-2.1-2.7-0.6-1.5-0.4-3.1 0.3-1.7 1.5-3.3 1.2-1.5 2.7-2.2 1.5-0.8 3.2-0.6 1.6 0.2 3.1 1.3 1.5 1.2 2.1 2.7 0.6 1.5 0.3 3.2-0.2 1.6-1.4 3.2-1.2 1.5-2.7 2.3-1.5 0.7-3.2 0.5-1.6-0.2-3.1-1.3zm1.6-2.1q1.3 1 2.6 0.6 1.4-0.4 2.4-1.8 1.1-1.5 1.1-2.8 0-1.4-1.3-2.4-0.9-0.7-1.8-0.7-0.9 0-1.7 0.5-0.8 0.5-1.5 1.4-1.1 1.5-1.1 2.9 0 1.3 1.3 2.3z"/><path  d="m157.6 39.9l8.9-9 1.7 1.8-2.1 2.2v-0.5q0.6-0.3 1.3-0.4 0.6-0.1 1.2 0 0.6 0.1 1.1 0.4 0.6 0.3 1 0.7 0.5 0.4 0.8 0.8l-1.9 1.9q-0.2-0.5-0.8-1-0.6-0.5-1.2-0.6-0.6-0.2-1.3-0.1-0.6 0.1-1.1 0.4-0.6 0.3-1.1 0.8l-4.5 4.5z"/><path  d="m166.9 50.7q-1.2-1.5-1.4-3.2-0.3-1.6 0.4-3.2 0.7-1.5 2.2-2.6 1.6-1.3 3.3-1.6 1.7-0.3 3.2 0.3 1.6 0.6 2.7 2.1 1.2 1.6 1.3 3.2 0.1 1.6-0.8 3.2-1 1.5-2.8 2.8l-1.7-2.3 0.8-0.6q1.6-1.2 1.9-2.4 0.3-1.1-0.6-2.3-1-1.4-2.4-1.4-1.4 0-3 1.2-1.5 1.2-1.8 2.5-0.3 1.3 0.6 2.6 0.7 0.8 1.5 1.1 0.8 0.3 1.8 0.1l1 2.7q-1.8 0.5-3.5-0.1-1.6-0.7-2.7-2.1zm2-7l1.6-1.3 5.3 6.9-1.7 1.3z"/><path  d="m177 68.2q-1-2.3-0.7-4.3 0.3-2.1 1.8-3.8 1.4-1.6 3.8-2.7 2.4-1 4.5-0.9 2.2 0.1 3.9 1.3 1.8 1.2 2.7 3.6 1 2.3 0.7 4.3-0.3 2.1-1.7 3.8-1.4 1.7-3.8 2.7-2.4 1-4.6 0.9-2.2-0.1-3.9-1.3-1.7-1.2-2.7-3.6zm2.4-1q0.7 1.6 1.8 2.3 1.2 0.7 2.6 0.7 1.5 0 3.2-0.7 1.7-0.8 2.7-1.8 1.1-1.1 1.3-2.4 0.3-1.3-0.4-2.9-0.6-1.6-1.8-2.3-1.1-0.7-2.6-0.7-1.5 0-3.2 0.8-1.7 0.7-2.7 1.7-1 1.1-1.3 2.4-0.2 1.3 0.4 2.9z"/><path  d="m181.6 82.5q-0.3-1.4-0.1-2.4 0.3-0.9 0.9-1.6 0.6-0.7 1.3-1.1 0.8-0.4 1.5-0.7 0.7-0.2 1.1-0.3l6.9-1.5 0.6 2.8-5.9 1.3q-0.6 0.1-1.3 0.3-0.7 0.3-1.3 0.7-0.6 0.4-0.9 1.1-0.3 0.7-0.1 1.6 0.1 0.6 0.4 1 0.3 0.5 0.8 0.8 0.5 0.4 1.3 0.5 0.8 0 1.9-0.2l-0.3 1.8q-1.6 0.3-3 0-1.4-0.3-2.4-1.4-1.1-1-1.4-2.7zm1.2 3.9l3.8-0.8-0.1-0.3 8.5-1.9 0.6 2.8-12.3 2.7z"/><path  d="m183.5 91.8l12.5-1 0.2 2.5-3 0.2 0.3-0.3q0.7 0.2 1.2 0.5 0.6 0.4 0.9 0.9 0.4 0.4 0.6 1 0.2 0.5 0.3 1.1 0.1 0.6 0.1 1.2l-2.7 0.2q0.2-0.6 0.1-1.3-0.2-0.7-0.6-1.3-0.3-0.6-0.8-0.9-0.5-0.3-1.2-0.4-0.6-0.2-1.3-0.1l-6.4 0.5z"/><path  d="m182.8 111.7q0.3-1.8 1.1-3.2 0.8-1.4 2.1-2.2 1.3-0.8 3-0.8v2.9q-1.5 0.2-2.4 1.2-1 1.1-1.2 2.6-0.1 0.9 0.1 1.7 0.2 0.8 0.6 1.4 0.5 0.5 1.3 0.6 0.3 0.1 0.6 0 0.3-0.1 0.6-0.3 0.3-0.2 0.5-0.5 0.2-0.3 0.4-0.8l1.8-4.1q0.3-0.6 0.6-1.2 0.4-0.6 0.9-1.1 0.6-0.5 1.4-0.8 0.8-0.2 1.9-0.1 1.6 0.2 2.5 1.2 1 0.9 1.4 2.4 0.4 1.4 0.2 3.1-0.3 1.7-1 3-0.8 1.2-1.9 2-1.2 0.8-2.8 0.9l-0.2-3q0.9-0.1 1.6-0.5 0.7-0.5 1.1-1.2 0.4-0.7 0.6-1.6 0.1-0.8-0.1-1.5-0.2-0.8-0.6-1.3-0.4-0.5-1.1-0.6-0.6 0-1 0.3-0.4 0.3-0.7 0.8-0.3 0.6-0.6 1.1l-1.2 2.9q-0.2 0.6-0.6 1.3-0.3 0.7-0.9 1.4-0.6 0.6-1.5 1-0.9 0.3-2.1 0.2-1.3-0.2-2.2-0.9-0.9-0.6-1.4-1.6-0.6-1-0.7-2.2-0.2-1.2-0.1-2.5z"/><path  d="m179.8 125.5q0.5-1.8 1.8-2.9 1.2-1.1 2.8-1.4 1.7-0.3 3.6 0.3 1.8 0.6 3 1.8 1.2 1.2 1.6 2.8 0.4 1.5-0.2 3.3-0.5 1.8-1.8 2.9-1.2 1.1-2.8 1.4-1.7 0.3-3.6-0.3-1.8-0.5-3-1.7-1.2-1.2-1.6-2.8-0.4-1.6 0.2-3.4zm2.5 0.8q-0.5 1.6 0.3 2.7 0.8 1.1 2.5 1.6 1.8 0.5 3 0.1 1.3-0.5 1.8-2.1 0.4-1 0.1-1.9-0.3-0.8-1-1.4-0.8-0.6-1.9-1-1.8-0.5-3.1-0.1-1.2 0.5-1.7 2.1z"/><path  d="m177 133.8l15.6 7-1.1 2.6-15.6-7z"/><path  d="m172 142.8q0.7-1.2 1.6-1.8 0.9-0.5 1.8-0.6 0.9-0.1 1.7 0.1 0.8 0.2 1.5 0.5 0.7 0.4 1 0.6l6.1 3.6-1.5 2.4-5.2-3.1q-0.5-0.3-1.2-0.6-0.6-0.3-1.4-0.4-0.7-0.1-1.3 0.2-0.7 0.3-1.2 1.1-0.3 0.5-0.4 1-0.2 0.6 0 1.2 0.1 0.6 0.6 1.2 0.5 0.6 1.5 1.1l-1.4 1.1q-1.4-0.8-2.2-2-0.8-1.2-0.9-2.7 0-1.4 0.9-2.9zm-1.8 3.7l3.4 2 0.1-0.3 7.5 4.5-1.5 2.4-10.8-6.5z"/><path  d="m162.4 156.6q0.6-1.1 1.4-2 0.7-0.9 1.7-1.4 0.9-0.4 1.9-0.3 0.9 0.2 1.6 0.7 0.6 0.6 1.5 1.2l8.4 7-1.8 2.1-8.3-6.8q-0.6-0.5-1-0.8-0.5-0.4-0.9-0.4-0.8-0.1-1.4 0.5-0.7 0.7-1.3 1.7zm13.6-0.2l1.7 1.4-5.6 6.8-1.7-1.4z"/><path  d="m170.9 168.5l1.9 1.8-2 2-1.8-1.8zm-10.4-10.2l9 8.9-2 2-8.9-8.9z"/><path  d="m152.2 165.5q1.4-1.2 3.1-1.4 1.6-0.2 3.1 0.5 1.6 0.7 2.8 2.2 1.2 1.6 1.5 3.2 0.3 1.7-0.2 3.2-0.6 1.5-2.1 2.7-1.4 1.2-3.1 1.4-1.6 0.2-3.1-0.5-1.6-0.7-2.8-2.2-1.2-1.5-1.5-3.2-0.4-1.6 0.2-3.2 0.6-1.5 2.1-2.7zm1.6 2.1q-1.3 1-1.2 2.4 0 1.4 1.1 2.8 1.2 1.4 2.5 1.7 1.3 0.4 2.6-0.7 0.9-0.7 1.1-1.5 0.3-0.9 0-1.8-0.3-0.9-1-1.8-1.2-1.5-2.5-1.8-1.3-0.3-2.6 0.7z"/><path  d="m137.7 175.2l3 5.3q0.2 0.5 0.7 1.1 0.4 0.6 1 1 0.5 0.5 1.3 0.6 0.7 0.1 1.6-0.4 0.4-0.3 0.8-0.7 0.4-0.4 0.5-1 0.2-0.5 0.1-1.3-0.1-0.8-0.7-1.8l1.8-0.2q0.8 1.4 0.9 2.9 0 1.4-0.7 2.7-0.6 1.3-2.2 2.1-1.2 0.7-2.2 0.7-1.1 0-1.9-0.3-0.8-0.4-1.4-1-0.6-0.6-1-1.2-0.5-0.6-0.7-1l-3.4-6.1zm7.7-4.2l6 11-2.2 1.2-1.8-3.4-0.3 0.1-4.2-7.6z"/><path  d="m127.9 178.8q2.2-0.7 4-0.2 1.7 0.5 2.6 2.2l-2.5 1.3q-0.6-0.8-1.5-1-0.8-0.3-1.9 0.1-1 0.3-1.4 0.9-0.4 0.6-0.1 1.2 0.1 0.4 0.4 0.6 0.3 0.2 1 0.2 0.7 0 2.2-0.1 1.6-0.2 2.7 0 1 0.1 1.6 0.6 0.6 0.5 0.9 1.4 0.4 1.1 0.1 2.1-0.3 1.1-1.2 1.9-0.8 0.8-2.3 1.3-1.3 0.5-2.6 0.4-1.2 0-2.1-0.6-1-0.5-1.5-1.6l2.5-1.4q0.4 0.7 1.2 1 0.7 0.2 1.7-0.1 0.9-0.3 1.4-0.8 0.4-0.5 0.2-1.1-0.1-0.4-0.4-0.5-0.3-0.2-1.1-0.2-0.8 0-2.3 0.1-1.5 0.2-2.5 0-1.1-0.2-1.7-0.7-0.6-0.5-0.9-1.4-0.6-1.8 0.3-3.3 1-1.4 3.2-2.3z"/><path  d="m115.1 191.1l2.2 1.2-1.4 2.3 2.7 0.3-0.5 2.4-2.6-0.6 0.6 2.7-2.5 0.3-0.2-2.7-2.4 1.3-1.1-2.2 2.6-1.1-2.1-1.8 1.8-1.7 1.8 2.1z"/><path  d="m100.4 183.9l-1.1 16.7-10.8-0.7 0.2-2.6 8 0.5 0.2-4.1-6.6-0.4 0.2-2.6 6.6 0.4 0.3-4.8-8-0.5 0.2-2.6z"/><path  d="m88.1 183l-5.9 5.2 3 7-3.2-0.7-1.9-4.5-3.6 3.3-3.2-0.8 5.7-5-3.1-7.2 3.3 0.7 1.9 4.7 3.7-3.4z"/><path  d="m68.8 177q1.7 0.7 2.6 2 0.8 1.3 0.8 2.9 0 1.6-0.7 3.4-0.7 1.7-1.9 2.9-1.1 1.1-2.5 1.5-1.5 0.3-3.2-0.3-1.6-0.7-2.5-2-0.9-1.3-1-3-0.1-1.6 0.6-3.4 0.7-1.7 2-2.9 1.2-1.1 2.7-1.4 1.5-0.3 3.1 0.3zm7.6-2.5l-6.8 16.8-2.3-1 3.3-8.1-0.3-0.2 3.5-8.6zm-8.1 5.1q-1-0.5-1.9-0.2-0.9 0.2-1.5 1-0.7 0.7-1.1 1.8-0.5 1-0.5 2 0 1 0.4 1.8 0.5 0.8 1.5 1.2 1 0.4 1.9 0.2 0.8-0.2 1.4-1 0.7-0.7 1.1-1.8 0.5-1.2 0.6-2.2 0-0.9-0.4-1.7-0.5-0.7-1.5-1.1z"/><path  d="m61.2 173.7l-8.3 15-2.5-1.4 8.3-14.9z"/><path  d="m52 167.5q1.5 1.1 2.2 2.6 0.6 1.6 0.4 3.2-0.3 1.7-1.4 3.3-1.2 1.6-2.7 2.3-1.5 0.7-3.2 0.6-1.6-0.1-3.1-1.2-1.5-1.1-2.2-2.7-0.6-1.5-0.4-3.1 0.3-1.7 1.4-3.3 1.2-1.6 2.7-2.3 1.5-0.8 3.1-0.6 1.7 0.1 3.2 1.2zm-1.5 2.2q-1.4-1-2.7-0.6-1.3 0.4-2.4 1.9-1 1.4-1 2.8 0 1.4 1.4 2.3 0.9 0.7 1.8 0.7 0.8 0 1.7-0.5 0.8-0.5 1.5-1.5 1-1.5 1-2.8 0-1.4-1.3-2.3z"/><path  d="m45.1 162.4l-8.7 9.1-1.8-1.7 2.1-2.2v0.4q-0.7 0.3-1.3 0.4-0.6 0.1-1.3 0-0.5-0.1-1-0.3-0.6-0.3-1-0.7-0.5-0.4-0.8-0.8l1.8-1.9q0.3 0.5 0.8 1 0.6 0.4 1.3 0.6 0.6 0.1 1.2 0 0.6-0.1 1.2-0.4 0.5-0.3 1-0.8l4.4-4.7z"/><path  d="m35.6 151.7q1.2 1.5 1.5 3.2 0.2 1.6-0.4 3.2-0.7 1.5-2.2 2.7-1.6 1.3-3.2 1.6-1.7 0.3-3.3-0.2-1.5-0.6-2.6-2.1-1.3-1.5-1.4-3.1-0.1-1.7 0.8-3.2 0.8-1.6 2.7-2.9l1.7 2.2-0.8 0.6q-1.6 1.3-1.9 2.5-0.2 1.1 0.7 2.3 1.1 1.4 2.4 1.3 1.4 0 3-1.2 1.5-1.2 1.8-2.5 0.3-1.3-0.7-2.6-0.7-0.8-1.5-1.1-0.8-0.3-1.8-0.1l-1-2.7q1.7-0.5 3.4 0.1 1.7 0.6 2.8 2zm-1.8 7.1l-1.7 1.3-5.4-6.8 1.7-1.3z"/><path  d="m25.1 134.4q1.1 2.3 0.8 4.4-0.2 2.1-1.6 3.7-1.4 1.7-3.8 2.8-2.4 1.1-4.6 1-2.1-0.1-3.9-1.3-1.7-1.1-2.8-3.4-1-2.3-0.7-4.4 0.2-2.1 1.6-3.8 1.4-1.7 3.8-2.7 2.4-1.1 4.5-1 2.2 0 4 1.2 1.7 1.2 2.7 3.5zm-2.4 1.1q-0.6-1.6-1.8-2.3-1.1-0.7-2.6-0.6-1.5 0-3.2 0.8-1.7 0.7-2.7 1.8-1 1.1-1.2 2.4-0.2 1.3 0.4 2.9 0.7 1.5 1.9 2.2 1.1 0.7 2.6 0.7 1.5-0.1 3.2-0.8 1.7-0.8 2.7-1.8 1-1.1 1.2-2.4 0.2-1.4-0.5-2.9z"/><path  d="m20.3 120.2q0.3 1.4 0.1 2.4-0.3 1-0.8 1.7-0.6 0.7-1.3 1.1-0.8 0.4-1.5 0.7-0.7 0.2-1.1 0.3l-6.8 1.6-0.7-2.7 5.9-1.4q0.6-0.2 1.3-0.4 0.7-0.3 1.2-0.7 0.6-0.4 0.9-1.1 0.3-0.7 0.1-1.7-0.2-0.5-0.5-0.9-0.2-0.5-0.8-0.8-0.5-0.3-1.3-0.4-0.7-0.1-1.8 0.2l0.3-1.8q1.5-0.4 2.9-0.1 1.4 0.3 2.5 1.3 1 1 1.4 2.7zm-1.3-3.9l-3.8 0.9 0.1 0.3-8.4 2-0.7-2.7 12.3-2.9z"/><path  d="m18.2 111l-12.5 1.2-0.2-2.5 3-0.3-0.3 0.4q-0.7-0.2-1.2-0.5-0.6-0.4-1-0.9-0.3-0.4-0.6-1-0.2-0.5-0.3-1.1-0.1-0.6-0.1-1.2l2.7-0.2q-0.2 0.6 0 1.3 0.1 0.7 0.5 1.2 0.4 0.6 0.9 0.9 0.5 0.3 1.1 0.4 0.7 0.2 1.4 0.1l6.4-0.6z"/><path  d="m18.5 91.1q-0.2 1.8-1 3.2-0.8 1.4-2.1 2.2-1.2 0.8-2.9 0.9l-0.1-3q1.5-0.2 2.4-1.2 0.9-1.1 1.1-2.6 0.1-0.9-0.1-1.7-0.2-0.8-0.7-1.4-0.4-0.5-1.2-0.6-0.4 0-0.7 0-0.3 0.1-0.5 0.3-0.3 0.2-0.5 0.6-0.2 0.3-0.4 0.7l-1.8 4.2q-0.2 0.6-0.5 1.2-0.4 0.6-0.9 1.1-0.6 0.5-1.3 0.8-0.8 0.3-1.9 0.2-1.6-0.2-2.6-1.1-1-1-1.4-2.4-0.4-1.4-0.2-3.1 0.1-1.7 0.9-3 0.7-1.3 1.9-2.1 1.2-0.8 2.7-1l0.2 3.1q-0.9 0.1-1.5 0.5-0.7 0.5-1.1 1.2-0.4 0.7-0.5 1.6-0.1 0.8 0 1.6 0.2 0.7 0.7 1.2 0.4 0.5 1.1 0.5 0.6 0.1 1-0.2 0.4-0.4 0.7-0.9 0.3-0.5 0.5-1.1l1.1-2.9q0.3-0.6 0.6-1.3 0.4-0.7 1-1.4 0.5-0.6 1.4-1 0.9-0.4 2.1-0.2 1.3 0.1 2.2 0.8 0.9 0.6 1.5 1.6 0.5 1 0.7 2.2 0.2 1.2 0.1 2.5z"/><path  d="m21.3 77.2q-0.5 1.8-1.7 2.9-1.2 1.2-2.9 1.5-1.6 0.3-3.5-0.2-1.9-0.6-3.1-1.8-1.2-1.1-1.6-2.7-0.4-1.6 0.1-3.4 0.5-1.8 1.7-2.9 1.2-1.1 2.9-1.5 1.6-0.3 3.5 0.2 1.9 0.6 3.1 1.8 1.2 1.1 1.6 2.7 0.4 1.6-0.1 3.4zm-2.5-0.7q0.5-1.6-0.4-2.7-0.8-1.1-2.5-1.6-1.8-0.5-3.1 0-1.2 0.5-1.7 2-0.3 1.1 0 2 0.3 0.8 1 1.4 0.8 0.6 1.9 0.9 1.8 0.5 3.1 0 1.2-0.5 1.7-2z"/><path  d="m23.9 68.8l-15.7-6.7 1.1-2.5 15.7 6.7z"/><path  d="m28.7 59.8q-0.7 1.2-1.5 1.7-0.9 0.6-1.8 0.7-0.9 0.1-1.7-0.1-0.8-0.2-1.5-0.5-0.7-0.3-1.1-0.5l-6-3.5 1.4-2.5 5.2 3q0.5 0.3 1.2 0.6 0.7 0.3 1.4 0.4 0.7 0.1 1.4-0.2 0.7-0.3 1.2-1.2 0.2-0.4 0.3-1 0.1-0.5 0-1.1-0.2-0.6-0.7-1.2-0.5-0.6-1.5-1.1l1.5-1.1q1.4 0.8 2.2 2 0.8 1.2 0.9 2.6 0 1.4-0.9 3zm1.8-3.8l-3.4-1.9-0.2 0.3-7.5-4.4 1.4-2.4 10.9 6.3z"/><path  d="m38.1 45.8q-0.6 1.1-1.3 2-0.8 0.9-1.7 1.4-0.9 0.5-1.9 0.3-0.9-0.2-1.6-0.7-0.7-0.5-1.5-1.1l-8.6-6.8 1.7-2.2 8.5 6.7q0.6 0.4 1 0.8 0.5 0.3 0.9 0.4 0.8 0.1 1.4-0.6 0.7-0.7 1.3-1.7zm-13.6 0.5l-1.7-1.4 5.4-6.9 1.7 1.4z"/><path  d="m29.3 34l-1.8-1.7 1.9-2.1 1.9 1.8zm10.5 10l-9.1-8.7 1.9-2 9.1 8.6z"/><path  d="m48.2 36.7q-1.5 1.2-3.1 1.4-1.6 0.2-3.2-0.4-1.5-0.7-2.8-2.2-1.2-1.5-1.6-3.1-0.3-1.7 0.2-3.2 0.6-1.6 2-2.8 1.5-1.2 3.1-1.4 1.6-0.3 3.2 0.4 1.5 0.6 2.8 2.1 1.2 1.5 1.6 3.2 0.3 1.7-0.2 3.2-0.6 1.6-2 2.8zm-1.7-2.1q1.3-1 1.2-2.4-0.1-1.4-1.2-2.8-1.2-1.4-2.5-1.7-1.4-0.3-2.6 0.8-0.9 0.7-1.1 1.6-0.3 0.8 0 1.7 0.3 0.9 1.1 1.8 1.2 1.5 2.5 1.8 1.3 0.3 2.6-0.8z"/><path  d="m62.4 26.7l-3-5.2q-0.3-0.5-0.7-1.1-0.5-0.6-1-1-0.6-0.5-1.4-0.6-0.7 0-1.6 0.5-0.4 0.2-0.8 0.6-0.4 0.5-0.5 1-0.2 0.6 0 1.4 0.1 0.7 0.7 1.7l-1.8 0.3q-0.8-1.4-0.9-2.9-0.1-1.4 0.6-2.7 0.6-1.3 2.2-2.1 1.2-0.7 2.2-0.8 1 0 1.8 0.3 0.8 0.4 1.5 1 0.6 0.5 1 1.1 0.5 0.6 0.7 1l3.5 6.1zm-7.6 4.3l-6.2-10.9 2.1-1.2 2 3.4 0.3-0.2 4.3 7.5z"/><path  d="m72.1 22.9q-2.1 0.8-3.9 0.3-1.7-0.5-2.7-2.1l2.6-1.4q0.5 0.8 1.4 1 0.9 0.2 2-0.2 0.9-0.3 1.3-0.9 0.4-0.6 0.1-1.2-0.1-0.4-0.4-0.6-0.3-0.2-1-0.2-0.7 0.1-2.2 0.2-1.6 0.2-2.7 0-1-0.1-1.6-0.6-0.6-0.4-1-1.3-0.4-1.1-0.1-2.2 0.3-1 1.1-1.8 0.9-0.9 2.3-1.4 1.4-0.5 2.6-0.5 1.2 0.1 2.2 0.6 0.9 0.5 1.5 1.5l-2.5 1.5q-0.4-0.7-1.2-0.9-0.7-0.2-1.7 0.1-0.9 0.3-1.4 0.8-0.4 0.6-0.2 1.2 0.1 0.3 0.4 0.5 0.4 0.1 1.1 0.1 0.8 0 2.3-0.2 1.6-0.2 2.6 0 1 0.1 1.6 0.6 0.6 0.5 1 1.5 0.6 1.7-0.3 3.2-0.9 1.5-3.2 2.4z"/><path  d="m84.7 10.4l-2.2-1.1 1.4-2.4-2.7-0.2 0.4-2.5 2.7 0.6-0.7-2.7 2.5-0.3 0.3 2.7 2.3-1.4 1.1 2.2-2.5 1.1 2.1 1.8-1.8 1.7-1.8-2z"/></svg>