<svg width="160" height="160" viewBox="0 0 160 160" fill="none" xmlns="http://www.w3.org/2000/svg">
<path d="M84.9474 8.70661L81.7871 0.242188L84.915 0.529078L87.1609 6.85245L86.637 6.64199L88.2009 6.78543L87.6077 6.89344L90.7798 1.067L93.7402 1.33852L89.2855 9.1045L84.9474 8.70661ZM85.1252 13.7215L85.6586 8.35679L88.6561 8.63173L88.1228 13.9964L85.1252 13.7215Z" fill="#111111"/>
<path d="M99.2273 16.5171C98.3906 16.2786 97.692 15.9295 97.1317 15.4699C96.5834 15.0138 96.165 14.4947 95.8766 13.9128C95.6037 13.3228 95.4425 12.7085 95.3928 12.0697C95.3586 11.4228 95.4355 10.7952 95.6236 10.1867L95.73 9.84226C95.9252 9.21083 96.2191 8.63877 96.6116 8.12609C97.0197 7.60533 97.5039 7.17498 98.0642 6.83504C98.6245 6.4951 99.2562 6.28171 99.9594 6.19488C100.678 6.09997 101.438 6.16669 102.239 6.39503C103.291 6.69494 104.104 7.17675 104.679 7.84046C105.27 8.49609 105.643 9.24582 105.799 10.0896C105.958 10.922 105.904 11.7687 105.638 12.6297L105.351 13.5596L96.6546 11.0803L97.1389 9.51316L104.096 11.4967L102.94 11.9541C103.114 11.3916 103.179 10.8855 103.136 10.436C103.093 9.98645 102.936 9.61064 102.665 9.30856C102.41 8.99842 102.037 8.77348 101.547 8.63375C101.045 8.49061 100.587 8.47868 100.173 8.59798C99.7586 8.71728 99.3963 8.96376 99.0857 9.33742C98.7786 9.6996 98.5311 10.1849 98.343 10.7934C98.1692 11.3559 98.1003 11.8735 98.1363 12.346C98.1759 12.807 98.3395 13.2034 98.6272 13.5353C98.9148 13.8671 99.3455 14.1148 99.9192 14.2784C100.445 14.4284 100.906 14.4535 101.301 14.3537C101.696 14.254 101.997 14.0777 102.206 13.8247L104.841 14.5762C104.503 15.1667 104.048 15.6492 103.477 16.0236C102.906 16.398 102.261 16.6326 101.542 16.7275C100.824 16.8224 100.052 16.7523 99.2273 16.5171Z" fill="#111111"/>
<path d="M113.149 21.656L114.547 19.0741L114.099 18.8503L115.618 16.0452C115.859 15.599 115.93 15.209 115.829 14.8754C115.729 14.5418 115.435 14.2534 114.949 14.0103C114.705 13.8888 114.381 13.7339 113.977 13.5456C113.573 13.3574 113.156 13.1689 112.724 12.9802C112.292 12.7915 111.899 12.6221 111.544 12.4721L112.709 10.3205C112.975 10.4263 113.285 10.5543 113.64 10.7043C113.994 10.8543 114.357 11.0151 114.727 11.1868C115.098 11.3585 115.444 11.5245 115.765 11.6847C116.694 12.1488 117.405 12.6658 117.898 13.2357C118.401 13.8111 118.678 14.442 118.728 15.1284C118.784 15.8042 118.593 16.5458 118.156 17.3533L115.257 22.7085L113.149 21.656ZM110.125 20.4289C109.472 20.1029 108.957 19.7041 108.58 19.2323C108.214 18.7661 108.005 18.2567 107.953 17.7042C107.906 17.1411 108.041 16.5674 108.358 15.983C108.703 15.3455 109.156 14.9104 109.718 14.678C110.285 14.4348 110.93 14.3723 111.653 14.4905C112.382 14.598 113.15 14.8534 113.958 15.2567L115.899 16.2263L115.131 17.6447L113.173 16.6669C112.708 16.4348 112.289 16.3668 111.913 16.4629C111.555 16.5539 111.275 16.7853 111.074 17.1572C110.884 17.5078 110.85 17.8555 110.973 18.2001C111.112 18.5397 111.414 18.8255 111.879 19.0576C112.178 19.2067 112.469 19.2915 112.753 19.3119C113.054 19.3272 113.348 19.2513 113.635 19.0843C113.922 18.9172 114.195 18.6214 114.453 18.1968L114.738 19.1493C114.355 19.7273 113.924 20.16 113.445 20.4473C112.978 20.7401 112.462 20.8876 111.899 20.8897C111.347 20.8974 110.755 20.7438 110.125 20.4289Z" fill="#111111"/>
<path d="M118.746 24.8595L124.873 16.968L126.777 18.3318L124.15 21.7159L124.105 21.6837C124.969 20.5701 125.881 19.8862 126.841 19.6322C127.81 19.3853 128.765 19.5983 129.704 20.2713L130.019 20.4968L128.476 22.4841L127.876 22.0545C127.217 21.582 126.573 21.3897 125.944 21.4776C125.324 21.5559 124.764 21.9167 124.264 22.5599L121.145 26.5777L118.746 24.8595Z" fill="#111111"/>
<path d="M128.862 33.3933C127.841 32.3922 127.256 31.4082 127.108 30.4413C126.96 29.4744 127.256 28.6094 127.996 27.8462L129.854 29.6686C129.658 29.9207 129.584 30.2502 129.632 30.6572C129.698 31.0644 129.971 31.5032 130.451 31.9738C130.817 32.3332 131.181 32.5697 131.541 32.6834C131.919 32.7973 132.228 32.7411 132.469 32.5149C132.682 32.3138 132.76 32.0647 132.702 31.7677C132.652 31.4624 132.418 31.0535 132.001 30.5412L131.491 29.9391C130.717 29.0082 130.312 28.1404 130.277 27.3355C130.25 26.5392 130.548 25.8478 131.172 25.2612C131.689 24.7752 132.247 24.4929 132.848 24.4142C133.448 24.3356 134.06 24.4306 134.683 24.6994C135.315 24.9767 135.919 25.3978 136.494 25.9625C137.419 26.8694 137.956 27.7979 138.104 28.7478C138.261 29.6894 137.961 30.5417 137.203 31.3048L135.345 29.4823C135.551 29.2219 135.629 28.9135 135.58 28.5574C135.54 28.1928 135.315 27.8095 134.905 27.4073C134.582 27.0908 134.262 26.897 133.946 26.8261C133.629 26.7552 133.364 26.8203 133.15 27.0214C132.945 27.2141 132.872 27.442 132.931 27.7051C132.99 27.9682 133.185 28.3047 133.515 28.7145L134.024 29.3166C134.808 30.273 135.243 31.1793 135.331 32.0355C135.418 32.8917 135.124 33.6382 134.447 34.275C133.957 34.7359 133.398 35.0097 132.771 35.0966C132.153 35.1751 131.506 35.0712 130.83 34.785C130.163 34.4903 129.507 34.0264 128.862 33.3933Z" fill="#111111"/>
<path d="M138.214 43.7818L150.154 37.4219L151.606 39.9354L139.666 46.2953L138.214 43.7818ZM139.484 45.9811L141.709 44.7962L144.602 49.8076L142.378 50.9924L139.484 45.9811ZM144.44 43.3413L146.665 42.1565L149.35 46.8065L147.125 47.9913L144.44 43.3413ZM149.2 40.8061L151.424 39.6212L154.254 44.5226L152.03 45.7074L149.2 40.8061Z" fill="#111111"/>
<path d="M143.905 53.8948L150.124 55.1364L149.657 55.2092L153.672 50.907L154.688 53.8577L151.966 56.595L152.06 56.8679L155.909 57.4052L156.866 60.1853L150.978 59.1603L151.374 59.1101L147.316 63.8041L146.295 60.8364L149.136 57.7017L149.042 57.4288L144.857 56.6578L143.905 53.8948Z" fill="#111111"/>
<path d="M144.29 66.8828L158.179 65.2765L158.463 67.5416L154.062 68.0505L154.043 67.7452C155.064 67.6753 155.943 67.7787 156.681 68.0552C157.432 68.3303 158.018 68.751 158.441 69.3173C158.876 69.8822 159.141 70.5451 159.236 71.306C159.321 71.9838 159.268 72.6111 159.077 73.1881C158.887 73.777 158.581 74.2948 158.16 74.7416C157.753 75.1988 157.246 75.565 156.64 75.8401C156.048 76.1257 155.38 76.3115 154.638 76.3974L154.211 76.4468C153.48 76.5312 152.78 76.5096 152.111 76.3819C151.455 76.2528 150.867 76.0193 150.347 75.6813C149.829 75.3552 149.399 74.9285 149.056 74.4012C148.728 73.8843 148.519 73.2692 148.429 72.5558C148.337 71.8186 148.408 71.1349 148.643 70.5046C148.892 69.8848 149.316 69.3593 149.915 68.9282C150.526 68.4956 151.331 68.2035 152.329 68.0519L151.314 68.9654L144.647 69.7363L144.29 66.8828ZM150.817 71.4655C150.878 71.953 151.055 72.3607 151.347 72.6888C151.641 73.0288 152.023 73.274 152.494 73.4246C152.965 73.5752 153.492 73.6169 154.073 73.5496C154.655 73.4823 155.15 73.3225 155.558 73.0703C155.966 72.8181 156.265 72.5 156.456 72.1161C156.659 71.7308 156.729 71.2884 156.666 70.7891C156.613 70.361 156.457 69.9689 156.198 69.6128C155.94 69.2567 155.598 68.9826 155.172 68.7906C154.76 68.6091 154.276 68.5505 153.719 68.6149L153.032 68.6944C152.499 68.756 152.056 68.9278 151.702 69.21C151.362 69.5026 151.117 69.8506 150.966 70.254C150.816 70.6574 150.766 71.0612 150.817 71.4655Z" fill="#111111"/>
<path d="M148.624 85.3631C148.698 84.5279 148.914 83.8005 149.27 83.1808C149.624 82.573 150.069 82.0749 150.605 81.6864C151.151 81.3108 151.746 81.0353 152.387 80.8599C153.04 80.6975 153.695 80.6434 154.354 80.6978L154.726 80.7286C155.41 80.785 156.052 80.9462 156.654 81.2123C157.268 81.4913 157.804 81.8602 158.263 82.3188C158.723 82.7775 159.068 83.3288 159.298 83.9729C159.54 84.6299 159.625 85.3581 159.553 86.1575C159.459 87.2075 159.132 88.0699 158.57 88.7448C158.021 89.4326 157.331 89.9346 156.502 90.2508C155.685 90.568 154.811 90.6881 153.879 90.6111L152.873 90.5281L153.65 81.8477L155.346 81.9877L154.724 88.932L154.025 87.9367C154.634 87.987 155.163 87.9465 155.613 87.8154C156.062 87.6843 156.414 87.4609 156.668 87.1453C156.932 86.8426 157.087 86.4467 157.131 85.9575C157.175 85.4563 157.095 85.023 156.89 84.6575C156.685 84.292 156.361 84.0008 155.917 83.7838C155.486 83.5679 154.941 83.4328 154.283 83.3784C153.674 83.3281 153.132 83.3675 152.658 83.4966C152.196 83.6267 151.824 83.8605 151.544 84.1979C151.263 84.5354 151.097 84.9905 151.046 85.5632C150.999 86.0882 151.066 86.5264 151.248 86.878C151.429 87.2295 151.669 87.4778 151.969 87.6227L151.734 90.2537C151.063 90.0541 150.48 89.7234 149.983 89.2617C149.486 88.8 149.117 88.2406 148.875 87.5836C148.634 86.9266 148.55 86.1864 148.624 85.3631Z" fill="#111111"/>
<path d="M147.814 93.6895L157.738 96.1483L157.145 98.3574L152.889 97.303L152.903 97.2508C154.304 97.5978 155.308 98.1496 155.916 98.9062C156.521 99.6745 156.677 100.604 156.384 101.694L156.286 102.059L153.787 101.44L153.974 100.744C154.179 99.9787 154.121 99.3334 153.798 98.8083C153.488 98.2861 152.928 97.9248 152.119 97.7244L147.067 96.4726L147.814 93.6895Z" fill="#111111"/>
<path d="M145.016 102.906L154.545 106.531L153.443 109.203L143.914 105.578L145.016 102.906ZM152.996 104.531L155.048 105.312L153.443 109.203L151.391 108.422L152.996 104.531ZM155.057 107.923C155.264 107.422 155.551 107.1 155.918 106.957C156.293 106.829 156.689 106.844 157.106 107.003C157.535 107.166 157.835 107.415 158.005 107.75C158.182 108.101 158.167 108.527 157.961 109.028C157.754 109.529 157.464 109.844 157.089 109.972C156.721 110.115 156.323 110.105 155.894 109.942C155.477 109.783 155.179 109.529 155.002 109.178C154.832 108.843 154.85 108.424 155.057 107.923Z" fill="#111111"/>
<path d="M139.642 113.078C140.083 112.355 140.603 111.787 141.202 111.375C141.794 110.972 142.419 110.706 143.077 110.577C143.738 110.463 144.398 110.46 145.056 110.566C145.718 110.689 146.334 110.911 146.904 111.232L147.227 111.414C147.818 111.747 148.326 112.158 148.751 112.646C149.18 113.152 149.499 113.706 149.708 114.31C149.918 114.914 149.983 115.554 149.902 116.231C149.826 116.923 149.577 117.616 149.154 118.308C148.6 119.217 147.918 119.861 147.109 120.239C146.305 120.633 145.458 120.801 144.568 120.744C143.688 120.693 142.845 120.441 142.038 119.987L141.167 119.496L145.754 111.98L147.222 112.806L143.553 118.819L143.367 117.632C143.894 117.929 144.39 118.111 144.855 118.178C145.319 118.245 145.737 118.189 146.107 118.009C146.482 117.845 146.798 117.551 147.057 117.127C147.322 116.693 147.443 116.269 147.422 115.854C147.4 115.44 147.238 115.043 146.934 114.664C146.642 114.291 146.21 113.944 145.64 113.623C145.113 113.326 144.606 113.138 144.12 113.059C143.644 112.985 143.204 113.043 142.8 113.232C142.396 113.421 142.042 113.763 141.74 114.259C141.462 114.714 141.327 115.137 141.333 115.529C141.339 115.922 141.446 116.245 141.651 116.5L140.261 118.778C139.745 118.321 139.366 117.781 139.124 117.159C138.882 116.537 138.8 115.88 138.876 115.187C138.952 114.494 139.207 113.791 139.642 113.078Z" fill="#111111"/>
<path d="M135.223 120.414L142.87 126.969L141.289 128.671L138.009 125.86L138.121 125.739C138.903 126.409 139.467 127.061 139.814 127.695C140.152 128.338 140.269 128.968 140.164 129.585C140.059 130.201 139.745 130.791 139.222 131.354L139.135 131.448C138.338 132.305 137.439 132.706 136.438 132.651C135.438 132.612 134.347 132.087 133.165 131.074L128.797 127.33L130.79 125.186L135.283 129.037C135.693 129.388 136.135 129.559 136.612 129.55C137.088 129.541 137.509 129.34 137.874 128.946C138.248 128.544 138.416 128.103 138.379 127.621C138.342 127.157 138.11 126.741 137.682 126.374L133.23 122.559L135.223 120.414Z" fill="#111111"/>
<path d="M121.716 132.629C122.423 132.118 123.127 131.781 123.827 131.62C124.525 131.475 125.199 131.468 125.847 131.598C126.496 131.729 127.092 131.973 127.637 132.329C128.188 132.694 128.667 133.135 129.071 133.652L129.285 133.925C129.705 134.461 130.016 135.037 130.219 135.655C130.43 136.282 130.511 136.913 130.462 137.548C130.413 138.183 130.216 138.798 129.87 139.392C129.515 139.994 128.998 140.54 128.321 141.029C127.583 141.562 126.822 141.895 126.037 142.028C125.259 142.17 124.51 142.12 123.788 141.877C123.067 141.634 122.439 141.211 121.905 140.608L124.251 138.912C124.568 139.237 124.95 139.426 125.397 139.478C125.841 139.547 126.302 139.408 126.78 139.063C127.179 138.775 127.437 138.438 127.556 138.052C127.665 137.673 127.654 137.27 127.521 136.841C127.388 136.413 127.141 135.969 126.782 135.51C126.452 135.088 126.092 134.749 125.703 134.491C125.321 134.242 124.925 134.116 124.516 134.112C124.105 134.124 123.685 134.286 123.256 134.595C122.938 134.826 122.71 135.073 122.573 135.336C122.434 135.617 122.374 135.9 122.395 136.185C122.413 136.486 122.508 136.777 122.681 137.057L120.349 138.742C119.869 138.07 119.609 137.359 119.568 136.609C119.534 135.869 119.697 135.152 120.058 134.456C120.426 133.771 120.978 133.162 121.716 132.629Z" fill="#111111"/>
<path d="M110.329 139.404C111.114 139.039 111.875 138.845 112.612 138.822C113.337 138.804 114.01 138.917 114.632 139.16C115.247 139.419 115.797 139.769 116.282 140.209C116.761 140.665 117.145 141.178 117.433 141.749L117.596 142.073C117.895 142.666 118.079 143.278 118.149 143.911C118.213 144.56 118.157 145.192 117.981 145.805C117.806 146.419 117.489 146.986 117.03 147.505C116.566 148.04 115.958 148.483 115.206 148.832C114.218 149.292 113.279 149.462 112.388 149.344C111.492 149.242 110.69 148.929 109.983 148.407C109.282 147.895 108.727 147.234 108.32 146.426L107.88 145.553L116.044 141.756L116.786 143.228L110.254 146.265L110.787 145.179C111.054 145.707 111.36 146.123 111.708 146.427C112.055 146.731 112.435 146.908 112.847 146.955C113.253 147.019 113.686 146.944 114.146 146.73C114.617 146.511 114.964 146.224 115.187 145.867C115.409 145.511 115.504 145.095 115.471 144.618C115.444 144.151 115.286 143.632 114.998 143.061C114.732 142.533 114.42 142.106 114.061 141.78C113.709 141.465 113.31 141.278 112.864 141.219C112.419 141.16 111.927 141.256 111.388 141.506C110.895 141.736 110.537 142.015 110.315 142.345C110.093 142.674 109.994 143 110.017 143.321L107.543 144.472C107.379 143.817 107.376 143.166 107.535 142.52C107.694 141.873 108.006 141.283 108.471 140.747C108.935 140.212 109.554 139.765 110.329 139.404Z" fill="#111111"/>
<path d="M90.4563 152.373L93.6148 153.866L93.9827 155.883L91.5408 158.318L90.0933 156.628L92.1795 155.366L92.102 154.941L89.6963 154.452L90.4563 152.373ZM94.4496 159.379L94.2144 156.008L95.8543 154.692L99.2683 155.504L98.4618 157.536L96.2876 156.443L95.9395 156.721L96.6907 158.965L94.4496 159.379ZM98.7228 152.514L95.7994 154.392L93.7916 153.69L92.8196 150.443L95.0703 150.083L95.1583 152.439L95.584 152.586L97.2233 150.851L98.7228 152.514Z" fill="#111111"/>
<path d="M74.7499 151.328L77.875 159.805L74.7483 159.506L72.5287 153.174L73.0518 153.386L71.4884 153.237L72.082 153.131L68.8858 158.945L65.9266 158.663L70.4135 150.914L74.7499 151.328ZM74.593 146.313L74.0373 151.675L71.0409 151.389L71.5966 146.026L74.593 146.313Z" fill="#111111"/>
<path d="M60.5027 143.46C61.3384 143.701 62.0355 144.053 62.5939 144.515C63.1403 144.973 63.5565 145.494 63.8424 146.077C64.1128 146.668 64.2715 147.283 64.3185 147.922C64.35 148.569 64.2704 149.196 64.0798 149.804L63.9719 150.148C63.774 150.779 63.4778 151.35 63.083 151.861C62.6728 152.38 62.1868 152.808 61.625 153.146C61.0633 153.484 60.4307 153.695 59.7271 153.779C59.0081 153.871 58.2486 153.801 57.4487 153.57C56.3981 153.266 55.5865 152.781 55.0141 152.115C54.4261 151.457 54.0562 150.706 53.9043 149.862C53.7489 149.029 53.806 148.182 54.0758 147.322L54.3671 146.393L63.0526 148.906L62.5616 150.472L55.6132 148.461L56.7711 148.008C56.5948 148.57 56.5273 149.076 56.5686 149.526C56.6098 149.975 56.7652 150.352 57.0348 150.655C57.2888 150.966 57.6605 151.192 58.15 151.334C58.6515 151.479 59.1095 151.493 59.524 151.375C59.9386 151.257 60.3019 151.012 60.6141 150.64C60.9227 150.279 61.1723 149.794 61.3629 149.187C61.5391 148.625 61.6102 148.108 61.5761 147.635C61.5385 147.174 61.3765 146.777 61.0903 146.444C60.8041 146.111 60.3744 145.861 59.8014 145.696C59.2761 145.544 58.8157 145.517 58.4203 145.615C58.0248 145.713 57.7225 145.888 57.5132 146.14L54.8807 145.379C55.2217 144.79 55.6785 144.309 56.2511 143.937C56.8236 143.564 57.4694 143.332 58.1884 143.24C58.9075 143.148 59.6789 143.221 60.5027 143.46Z" fill="#111111"/>
<path d="M46.6022 138.268L45.1936 140.845L45.6407 141.07L44.1104 143.87C43.8669 144.315 43.7947 144.705 43.8938 145.039C43.9928 145.373 44.2852 145.662 44.771 145.907C45.0138 146.03 45.3369 146.186 45.7401 146.376C46.1433 146.565 46.5605 146.755 46.9916 146.946C47.4227 147.136 47.8151 147.307 48.1689 147.458L46.9951 149.606C46.7296 149.499 46.42 149.37 46.0661 149.218C45.7123 149.067 45.3504 148.905 44.9803 148.731C44.6102 148.558 44.265 148.391 43.9449 148.23C43.0176 147.762 42.3089 147.242 41.8187 146.67C41.3176 146.093 41.0434 145.461 40.9962 144.774C40.9433 144.098 41.1371 143.358 41.5776 142.552L44.4991 137.208L46.6022 138.268ZM49.6218 139.507C50.2731 139.836 50.7863 140.237 51.1613 140.71C51.5253 141.177 51.7323 141.688 51.7822 142.24C51.8263 142.804 51.689 143.377 51.3702 143.96C51.0224 144.596 50.5672 145.029 50.0047 145.26C49.4364 145.501 48.791 145.561 48.0685 145.44C47.3401 145.329 46.573 145.071 45.7671 144.665L43.8297 143.688L44.6035 142.272L46.5575 143.257C47.0212 143.491 47.4408 143.561 47.8165 143.466C48.1753 143.377 48.4561 143.146 48.659 142.775C48.8503 142.425 48.8854 142.078 48.7642 141.733C48.6263 141.393 48.3254 141.106 47.8618 140.872C47.5637 140.721 47.2727 140.636 46.9887 140.614C46.6878 140.598 46.3935 140.672 46.1056 140.838C45.8177 141.004 45.5439 141.299 45.2842 141.723L45.0027 140.769C45.3883 140.192 45.8211 139.761 46.3011 139.476C46.77 139.185 47.2862 139.039 47.8495 139.04C48.4017 139.034 48.9925 139.19 49.6218 139.507Z" fill="#111111"/>
<path d="M41.0197 135.032L34.8599 142.899L32.9615 141.528L35.603 138.154L35.6478 138.187C34.7785 139.297 33.8637 139.977 32.9033 140.228C31.9329 140.471 30.9793 140.254 30.0425 139.578L29.7286 139.351L31.2798 137.37L31.8777 137.801C32.5355 138.276 33.1786 138.471 33.8071 138.386C34.4282 138.31 34.9898 137.951 35.4918 137.31L38.6279 133.304L41.0197 135.032Z" fill="#111111"/>
<path d="M30.9398 126.475C31.9564 127.48 32.5368 128.467 32.681 129.434C32.8252 130.401 32.5256 131.265 31.7823 132.026L29.9316 130.196C30.1294 129.945 30.2049 129.616 30.1581 129.208C30.0937 128.801 29.8225 128.361 29.3446 127.889C28.9797 127.528 28.6173 127.29 28.2575 127.175C27.8801 127.06 27.5707 127.115 27.3292 127.34C27.1146 127.54 27.0359 127.789 27.0932 128.086C27.1415 128.392 27.3734 128.802 27.7889 129.315L28.2957 129.919C29.0664 130.853 29.4678 131.723 29.4998 132.528C29.5231 133.324 29.2218 134.014 28.5958 134.599C28.0771 135.083 27.5174 135.363 26.9166 135.439C26.3159 135.515 25.7045 135.418 25.0825 135.147C24.4518 134.867 23.8498 134.444 23.2763 133.877C22.3553 132.967 21.8226 132.036 21.6782 131.085C21.5248 130.143 21.8285 129.292 22.5894 128.532L24.4401 130.362C24.2334 130.621 24.1539 130.929 24.2014 131.286C24.24 131.65 24.4635 132.034 24.8719 132.438C25.1934 132.756 25.5123 132.951 25.8286 133.023C26.145 133.095 26.4105 133.031 26.6251 132.831C26.8308 132.639 26.9048 132.411 26.847 132.148C26.7892 131.885 26.5959 131.547 26.267 131.136L25.7602 130.532C24.981 129.573 24.5494 128.665 24.4652 127.808C24.3811 126.952 24.6789 126.207 25.3585 125.572C25.8504 125.113 26.41 124.842 27.0373 124.757C27.6557 124.681 28.3022 124.787 28.9768 125.076C29.6425 125.373 30.2968 125.84 30.9398 126.475Z" fill="#111111"/>
<path d="M21.6306 116.046L9.66406 122.359L8.22323 119.84L20.1898 113.526L21.6306 116.046ZM20.3699 113.841L18.1405 115.018L15.2679 109.995L17.4972 108.819L20.3699 113.841ZM15.403 116.462L13.1736 117.638L10.508 112.978L12.7374 111.802L15.403 116.462ZM10.6327 118.979L8.40333 120.155L5.59371 115.243L7.8231 114.067L10.6327 118.979Z" fill="#111111"/>
<path d="M15.9805 105.916L9.76689 104.651L10.2346 104.58L6.20153 108.866L5.19823 105.912L7.93142 103.185L7.83863 102.912L3.99196 102.359L3.04665 99.5757L8.93052 100.623L8.53391 100.672L12.611 95.9939L13.6201 98.9655L10.766 102.089L10.8588 102.362L15.041 103.15L15.9805 105.916Z" fill="#111111"/>
<path d="M15.6505 92.9293L1.75428 94.4824L1.47973 92.2163L5.88268 91.7242L5.90085 92.0296C4.8795 92.0956 4.00042 91.9889 3.26361 91.7095C2.51442 91.4315 1.92968 91.0086 1.50939 90.4407C1.07672 89.8742 0.814264 89.2102 0.722029 88.4489C0.639881 87.7709 0.695705 87.1437 0.8895 86.5675C1.08185 85.9793 1.38957 85.4626 1.81265 85.0175C2.2219 84.5618 2.7301 84.1976 3.33725 83.9248C3.93057 83.6415 4.59878 83.4583 5.3419 83.3752L5.76919 83.3275C6.49992 83.2458 7.19955 83.2701 7.86808 83.4003C8.52422 83.532 9.1114 83.7677 9.62959 84.1077C10.1463 84.4358 10.5748 84.8641 10.915 85.3927C11.2414 85.9109 11.4479 86.5268 11.5343 87.2405C11.6237 87.978 11.5496 88.6615 11.312 89.2909C11.0606 89.9097 10.6345 90.4336 10.0337 90.8624C9.42053 91.2927 8.6145 91.5817 7.61562 91.7295L8.63517 90.8198L15.3046 90.0744L15.6505 92.9293ZM9.14218 88.3217C9.08309 87.834 8.90807 87.4255 8.61713 87.0963C8.32475 86.7553 7.94338 86.5085 7.47301 86.3561C7.00264 86.2037 6.47641 86.1601 5.8943 86.2251C5.31219 86.2902 4.81665 86.4481 4.40767 86.6987C3.99869 86.9494 3.69815 87.2663 3.50607 87.6495C3.3016 88.034 3.22963 88.4761 3.29016 88.9757C3.34204 89.404 3.49632 89.7966 3.75298 90.1538C4.00965 90.5109 4.35056 90.7863 4.77571 90.9799C5.18703 91.163 5.67136 91.2234 6.2287 91.1611L6.91608 91.0843C7.44864 91.0248 7.89248 90.8546 8.2476 90.5738C8.58889 90.2824 8.83556 89.9354 8.98761 89.5326C9.13965 89.1298 9.19118 88.7261 9.14218 88.3217Z" fill="#111111"/>
<path d="M11.3938 74.4149C11.3155 75.2498 11.0972 75.9764 10.7388 76.5948C10.3815 77.2012 9.93438 77.6976 9.3974 78.084C8.84912 78.4575 8.25389 78.7307 7.61173 78.9036C6.95826 79.0636 6.30244 79.1151 5.64425 79.0582L5.27169 79.026C4.58867 78.967 3.94675 78.8033 3.34594 78.5349C2.73383 78.2535 2.19896 77.8826 1.74134 77.4222C1.28371 76.9618 0.941146 76.4092 0.713638 75.7642C0.47483 75.1063 0.392868 74.3778 0.467753 73.5786C0.56611 72.529 0.897191 71.6678 1.461 70.9951C2.0135 70.3094 2.70503 69.8101 3.53559 69.4971C4.35372 69.183 5.22849 69.0663 6.15988 69.1468L7.16579 69.2337L6.35267 77.911L4.65753 77.7645L5.30803 70.8226L6.00322 71.8206C5.39471 71.768 4.8653 71.8064 4.41501 71.9358C3.96471 72.0653 3.61214 72.2873 3.35731 72.6019C3.09118 72.9036 2.9352 73.2989 2.88938 73.788C2.84244 74.2889 2.92073 74.7225 3.12427 75.0888C3.32781 75.4551 3.65095 75.7476 4.09367 75.9662C4.52397 76.1838 5.06822 76.321 5.7264 76.3779C6.33491 76.4305 6.87674 76.3932 7.35187 76.2659C7.81459 76.1376 8.1869 75.9052 8.4688 75.5689C8.7507 75.2325 8.91848 74.7781 8.97213 74.2055C9.02131 73.6807 8.95599 73.2422 8.77617 72.89C8.59634 72.5378 8.35679 72.2886 8.0575 72.1425L8.30395 69.5125C8.97356 69.7146 9.55581 70.0475 10.0507 70.5112C10.5456 70.9748 10.9124 71.5356 11.1512 72.1935C11.39 72.8514 11.4709 73.5919 11.3938 74.4149Z" fill="#111111"/>
<path d="M12.2379 66.1074L2.3239 63.61L2.92651 61.4033L7.17796 62.4742L7.16373 62.5264C5.76467 62.1739 4.76272 61.6182 4.15789 60.8592C3.55622 60.0886 3.40406 59.1588 3.70141 58.0699L3.80105 57.7051L6.29765 58.334L6.10785 59.029C5.89907 59.7935 5.95484 60.439 6.27516 60.9654C6.58341 61.4888 7.14157 61.8522 7.94965 62.0558L12.9971 63.3273L12.2379 66.1074Z" fill="#111111"/>
<path d="M15.0735 56.9053L5.55952 53.2437L6.6726 50.5758L16.1866 54.2373L15.0735 56.9053ZM7.10031 55.2494L5.05168 54.461L6.6726 50.5758L8.72123 51.3642L7.10031 55.2494ZM5.05333 51.8491C4.84463 52.3493 4.55616 52.6705 4.18792 52.8126C3.81275 52.9392 3.41683 52.9223 3.00016 52.7619C2.57191 52.5971 2.27338 52.3467 2.10457 52.0108C1.92882 51.6594 1.9453 51.2335 2.154 50.7333C2.3627 50.233 2.65464 49.9196 3.02981 49.7931C3.39805 49.651 3.79629 49.6623 4.22454 49.8272C4.64121 49.9875 4.93742 50.2434 5.11317 50.5949C5.28198 50.9308 5.26203 51.3489 5.05333 51.8491Z" fill="#111111"/>
<path d="M20.4909 46.7574C20.0465 47.479 19.5241 48.0449 18.9238 48.4552C18.3298 48.8551 17.7039 49.1187 17.0461 49.2459C16.3839 49.3567 15.7242 49.3576 15.067 49.2486C14.4054 49.1232 13.7902 48.8989 13.2214 48.5758L12.8994 48.3929C12.3092 48.0575 11.8029 47.6447 11.3806 47.1543C10.9538 46.6475 10.6369 46.0918 10.4298 45.4871C10.2227 44.8825 10.1608 44.242 10.2441 43.5658C10.323 42.8732 10.5751 42.1816 11.0004 41.491C11.559 40.5839 12.2434 39.9431 13.0535 39.5685C13.8593 39.1775 14.7072 39.0122 15.5972 39.0726C16.4764 39.1269 17.3185 39.3826 18.1234 39.8399L18.9927 40.3338L14.3745 47.8325L12.9096 47.0003L16.6041 41.0013L16.7851 42.1894C16.2592 41.8906 15.764 41.7067 15.2996 41.6376C14.8351 41.5685 14.4174 41.6234 14.0465 41.8023C13.6712 41.9647 13.3534 42.2573 13.0931 42.6799C12.8265 43.1128 12.7031 43.5366 12.7229 43.9514C12.7427 44.3662 12.9036 44.7636 13.2054 45.1438C13.4965 45.518 13.9265 45.8666 14.4953 46.1897C15.0212 46.4885 15.5271 46.6785 16.013 46.7598C16.4882 46.8349 16.9284 46.7789 17.3335 46.5916C17.7385 46.4043 18.0934 46.0633 18.3981 45.5685C18.6774 45.115 18.8148 44.6921 18.8101 44.2998C18.8054 43.9076 18.7006 43.5837 18.4958 43.3282L19.8955 41.0554C20.4096 41.5144 20.7863 42.0554 21.0256 42.6783C21.2649 43.3013 21.3451 43.959 21.2662 44.6517C21.1873 45.3443 20.9289 46.0462 20.4909 46.7574Z" fill="#111111"/>
<path d="M24.9425 39.4282L17.3223 32.8449L18.9108 31.1487L22.1786 33.9719L22.066 34.0921C21.2873 33.4193 20.726 32.7652 20.382 32.1297C20.0463 31.4853 19.9321 30.8551 20.0394 30.2391C20.1468 29.6231 20.4631 29.0346 20.9884 28.4737L21.076 28.3802C21.8765 27.5255 22.7773 27.1278 23.7782 27.1872C24.7782 27.2296 25.8669 27.7594 27.0442 28.7766L31.3966 32.5368L29.3953 34.6737L24.9178 30.8053C24.5099 30.4529 24.0678 30.2804 23.5914 30.2876C23.115 30.2948 22.6934 30.4944 22.3265 30.8861C21.9513 31.2868 21.7813 31.7279 21.8167 32.2095C21.8511 32.6741 22.0815 33.0906 22.5079 33.459L26.9438 37.2913L24.9425 39.4282Z" fill="#111111"/>
<path d="M38.5002 27.2562C37.7907 27.7648 37.0854 28.0985 36.3842 28.2574C35.6856 28.3995 35.0123 28.4039 34.3642 28.2707C33.7162 28.1375 33.1208 27.8918 32.578 27.5337C32.0278 27.166 31.5514 26.723 31.1487 26.2047L30.9361 25.9311C30.5185 25.3937 30.2095 24.8157 30.009 24.1973C29.8011 23.5693 29.7228 22.938 29.7743 22.3034C29.8258 21.6688 30.0255 21.0549 30.3736 20.4617C30.7317 19.8614 31.2505 19.3176 31.9301 18.8306C32.6695 18.3006 33.4322 17.9706 34.2181 17.8406C34.9965 17.7011 35.7457 17.7543 36.4658 18.0003C37.1859 18.2462 37.812 18.6716 38.3442 19.2764L35.9909 20.9632C35.675 20.6367 35.2939 20.4466 34.8476 20.3929C34.4039 20.3225 33.9422 20.4591 33.4626 20.8029C33.0629 21.0894 32.8027 21.4253 32.682 21.8107C32.5713 22.1889 32.5816 22.5925 32.7127 23.0215C32.8438 23.4505 33.0883 23.8954 33.4463 24.3561C33.7744 24.7784 34.1326 25.1193 34.521 25.3789C34.902 25.6289 35.2969 25.7567 35.7059 25.7624C36.1174 25.7514 36.538 25.5919 36.9677 25.2839C37.2874 25.0547 37.5162 24.8085 37.654 24.5454C37.7944 24.2655 37.8549 23.983 37.8357 23.6979C37.819 23.3961 37.7249 23.1049 37.5536 22.8242L39.8919 21.1482C40.369 21.8223 40.6266 22.5343 40.6646 23.284C40.6952 24.0242 40.5289 24.7412 40.1655 25.4349C39.7948 26.1191 39.2396 26.7262 38.5002 27.2562Z" fill="#111111"/>
<path d="M49.9141 20.531C49.1269 20.8933 48.3651 21.0845 47.6286 21.1047C46.9033 21.1198 46.2305 21.0045 45.6102 20.7588C44.9958 20.4971 44.447 20.1454 43.964 19.7037C43.4868 19.246 43.1054 18.731 42.8199 18.1586L42.6582 17.8346C42.3619 17.2406 42.1802 16.627 42.1132 15.9939C42.0521 15.3448 42.1106 14.7136 42.2886 14.1005C42.4667 13.4874 42.7861 12.9221 43.2469 12.4046C43.7136 11.8712 44.3236 11.4311 45.077 11.0844C46.0665 10.629 47.0064 10.4621 47.8966 10.5836C48.7926 10.6891 49.593 11.0047 50.2976 11.5303C50.9969 12.0451 51.5486 12.7075 51.9526 13.5175L52.3891 14.3923L44.2086 18.157L43.4731 16.6827L50.0175 13.671L49.4799 14.7551C49.2159 14.2259 48.9109 13.8085 48.5649 13.5029C48.2189 13.1974 47.8399 13.0199 47.4281 12.9703C47.0221 12.9049 46.5886 12.9782 46.1276 13.1904C45.6553 13.4077 45.3073 13.694 45.0836 14.0493C44.8599 14.4046 44.7634 14.8208 44.794 15.298C44.8193 15.7644 44.9747 16.2839 45.2603 16.8563C45.5243 17.3855 45.8347 17.8136 46.1915 18.1408C46.5429 18.4571 46.9411 18.6457 47.3862 18.7065C47.8313 18.7672 48.3237 18.6734 48.8635 18.425C49.3582 18.1973 49.7172 17.9192 49.9405 17.5907C50.1637 17.2622 50.2642 16.9371 50.242 16.6154L52.7214 15.4743C52.8828 16.1304 52.8826 16.7813 52.7207 17.4268C52.5588 18.0723 52.2445 18.6618 51.7779 19.1952C51.3112 19.7287 50.69 20.174 49.9141 20.531Z" fill="#111111"/>
<path d="M69.8368 7.6394L66.6845 6.13454L66.3248 4.11602L68.7768 1.69009L70.2173 3.38516L68.126 4.64012L68.2017 5.06507L70.6054 5.56304L69.8368 7.6394ZM65.8725 0.618317L66.0937 3.98999L64.4484 5.2992L61.0378 4.47466L61.8527 2.44535L64.0223 3.54675L64.3716 3.27065L63.6297 1.02337L65.8725 0.618317ZM61.5709 7.46702L64.502 5.60021L66.5069 6.30952L67.4655 9.56L65.2133 9.91193L65.135 7.55557L64.71 7.40673L63.0636 9.1353L61.5709 7.46702Z" fill="#111111"/>
</svg>
